# xmcd
#
# Track frame offsets: 
#        150
#        13916
#        39094
#        54615
#        74908
#        109291
#        129637
#        152246
#        168588
#
# Disc length: 2502 seconds
#
# Revision: 2
# Processed by: cddbd v1.5.2PL0 Copyright (c) Steve Scherf et al.
# Submitted via: ExactAudioCopy v0.99pb4
#
DISCID=8209c409
DTITLE=Elvin Bishop - Gettin' my Groove Back
DYEAR=2005
DGENRE=Blues
TTITLE0=What the hell is Going On
TTITLE1=I'll Be Glad
TTITLE2=Sweet Dreams
TTITLE3=That's My Thing
TTITLE4=Blues Train
TTITLE5=He's a Dog
TTITLE6=Got to be New Orleans
TTITLE7=Come on Blues
TTITLE8=Party til the Cows Come Home
EXTD=
EXTT0=
EXTT1=
EXTT2=
EXTT3=
EXTT4=
EXTT5=
EXTT6=
EXTT7=
EXTT8=
PLAYORDER=
